<svg width="360" height="42" viewBox="0 0 360 42" fill="none" xmlns="http://www.w3.org/2000/svg">
<rect x="0.5" y="0.5" width="359" height="41" rx="20.5" stroke="black" stroke-opacity="0.1"/>
<g clip-path="url(#clip0_87_4810)">
<path d="M119.5 21.2295C119.5 20.5497 119.443 19.8663 119.323 19.1975H109.7V23.0483H115.211C114.982 24.2903 114.248 25.3889 113.172 26.0871V28.5857H116.459C118.39 26.844 119.5 24.2719 119.5 21.2295Z" fill="#4285F4"/>
<path d="M109.7 30.9998C112.452 30.9998 114.772 30.1143 116.463 28.5857L113.175 26.0871C112.261 26.697 111.08 27.0424 109.704 27.0424C107.042 27.0424 104.785 25.2824 103.976 22.916H100.583V25.4918C102.315 28.8686 105.843 30.9998 109.7 30.9998Z" fill="#34A853"/>
<path d="M103.972 22.916C103.545 21.6741 103.545 20.3292 103.972 19.0873V16.5115H100.583C99.1363 19.3371 99.1363 22.6662 100.583 25.4918L103.972 22.916Z" fill="#FBBC04"/>
<path d="M109.7 14.9573C111.155 14.9353 112.561 15.4717 113.614 16.4565L116.527 13.6014C114.682 11.9039 112.234 10.9705 109.7 10.9999C105.843 10.9999 102.315 13.1311 100.583 16.5116L103.972 19.0874C104.778 16.7174 107.038 14.9573 109.7 14.9573Z" fill="#EA4335"/>
</g>
<path d="M144.205 18.7051C144.173 18.4054 144.067 18.1476 143.886 17.9316C143.709 17.7157 143.472 17.5513 143.176 17.4385C142.882 17.3225 142.547 17.2645 142.17 17.2645C141.774 17.2645 141.426 17.3273 141.126 17.453C140.826 17.5787 140.594 17.7528 140.43 17.9751C140.269 18.1943 140.188 18.4441 140.188 18.7244C140.185 19.1434 140.354 19.4673 140.696 19.6961C141.04 19.9217 141.471 20.0974 141.986 20.2231L142.948 20.4744C143.751 20.671 144.426 20.9853 144.974 21.4171C145.522 21.8458 145.796 22.4597 145.796 23.259C145.796 23.823 145.651 24.3241 145.361 24.7624C145.071 25.2007 144.648 25.544 144.094 25.7921C143.543 26.0403 142.887 26.1644 142.127 26.1644C141.392 26.1644 140.752 26.0483 140.207 25.8163C139.663 25.581 139.236 25.2459 138.926 24.8108C138.62 24.3725 138.451 23.8552 138.419 23.259H139.927C139.956 23.6038 140.07 23.8955 140.27 24.134C140.47 24.3725 140.729 24.5513 141.048 24.6706C141.371 24.7866 141.728 24.8446 142.122 24.8446C142.541 24.8446 142.914 24.7785 143.243 24.6464C143.575 24.511 143.835 24.3225 144.022 24.0808C144.212 23.8391 144.307 23.5603 144.307 23.2445C144.307 22.9673 144.228 22.7353 144.07 22.5483C143.912 22.3614 143.699 22.2083 143.432 22.0891C143.164 21.9666 142.831 21.8522 142.431 21.7459L141.266 21.4316C140.435 21.206 139.796 20.8805 139.352 20.4551C138.907 20.0265 138.685 19.4786 138.685 18.8115C138.685 18.2507 138.838 17.7544 139.144 17.3225C139.45 16.8907 139.871 16.5571 140.406 16.3218C140.941 16.0833 141.54 15.9641 142.204 15.9641C142.865 15.9641 143.454 16.0817 143.973 16.317C144.492 16.5523 144.9 16.8778 145.196 17.2935C145.493 17.7093 145.647 18.1798 145.66 18.7051H144.205ZM147.294 18.5746H148.754V26H147.294V18.5746ZM148.033 17.4337C147.866 17.4337 147.711 17.395 147.569 17.3177C147.431 17.2403 147.32 17.1356 147.236 17.0035C147.152 16.8713 147.11 16.7263 147.11 16.5684C147.11 16.4105 147.152 16.2654 147.236 16.1333C147.32 16.0012 147.431 15.8964 147.569 15.8191C147.711 15.7417 147.866 15.703 148.033 15.703C148.198 15.703 148.349 15.7417 148.488 15.8191C148.63 15.8964 148.741 16.0012 148.821 16.1333C148.905 16.2654 148.947 16.4105 148.947 16.5684C148.947 16.7263 148.905 16.8713 148.821 17.0035C148.741 17.1356 148.63 17.2403 148.488 17.3177C148.349 17.395 148.198 17.4337 148.033 17.4337ZM153.657 28.9392C153.032 28.9392 152.482 28.8506 152.008 28.6733C151.538 28.4993 151.164 28.2447 150.887 27.9095C150.613 27.5776 150.455 27.1812 150.413 26.7203H151.902C151.97 27.0684 152.157 27.3294 152.463 27.5035C152.772 27.6807 153.175 27.7693 153.671 27.7693C154.271 27.7693 154.735 27.6324 155.064 27.3584C155.396 27.0877 155.562 26.6703 155.562 26.1064V24.6464H155.465C155.281 24.988 155.027 25.2813 154.701 25.5262C154.376 25.768 153.913 25.8888 153.314 25.8888C152.721 25.8888 152.189 25.7454 151.718 25.4586C151.251 25.1717 150.882 24.7512 150.611 24.1968C150.341 23.6425 150.205 22.9802 150.205 22.2099C150.205 21.4397 150.339 20.7742 150.607 20.2134C150.874 19.6494 151.243 19.2192 151.714 18.9227C152.187 18.6262 152.726 18.4779 153.328 18.4779C153.75 18.4779 154.105 18.5488 154.392 18.6906C154.679 18.8292 154.899 18.9887 155.054 19.1692C155.209 19.3497 155.351 19.5527 155.479 19.7783H155.576V18.5746H157.002V26.1595C157.002 26.7751 156.859 27.2907 156.572 27.7065C156.285 28.1222 155.89 28.4316 155.388 28.6347C154.888 28.8377 154.311 28.9392 153.657 28.9392ZM151.689 22.239C151.689 22.7288 151.764 23.1575 151.912 23.5249C152.06 23.8923 152.281 24.1775 152.574 24.3805C152.867 24.5836 153.223 24.6851 153.642 24.6851C154.052 24.6851 154.401 24.5884 154.691 24.395C154.982 24.2017 155.201 23.9213 155.349 23.5539C155.5 23.1865 155.576 22.7482 155.576 22.239C155.576 21.7362 155.5 21.2963 155.349 20.9192C155.201 20.5389 154.982 20.244 154.691 20.0345C154.401 19.825 154.052 19.7203 153.642 19.7203C153.22 19.7203 152.863 19.8299 152.569 20.049C152.279 20.265 152.06 20.5631 151.912 20.9434C151.764 21.3237 151.689 21.7555 151.689 22.239ZM160.238 26H158.778V18.5746H160.18V19.788H160.272C160.449 19.3787 160.723 19.058 161.094 18.826C161.464 18.5939 161.92 18.4779 162.462 18.4779C162.974 18.4779 163.419 18.5859 163.796 18.8018C164.176 19.0145 164.47 19.3303 164.676 19.7493C164.885 20.1683 164.99 20.6775 164.99 21.2769V26H163.53V21.4558C163.53 21.1013 163.467 20.7951 163.342 20.5373C163.219 20.2795 163.04 20.0829 162.805 19.9475C162.57 19.8089 162.289 19.7396 161.964 19.7396C161.626 19.7396 161.326 19.8138 161.065 19.962C160.807 20.107 160.604 20.3198 160.456 20.6001C160.311 20.8773 160.238 21.2093 160.238 21.596V26ZM170.181 18.5746H171.64V26H170.181V18.5746ZM170.92 17.4337C170.753 17.4337 170.598 17.395 170.456 17.3177C170.317 17.2403 170.206 17.1356 170.123 17.0035C170.039 16.8713 169.997 16.7263 169.997 16.5684C169.997 16.4105 170.039 16.2654 170.123 16.1333C170.206 16.0012 170.317 15.8964 170.456 15.8191C170.598 15.7417 170.753 15.703 170.92 15.703C171.085 15.703 171.236 15.7417 171.375 15.8191C171.516 15.8964 171.628 16.0012 171.708 16.1333C171.792 16.2654 171.834 16.4105 171.834 16.5684C171.834 16.7263 171.792 16.8713 171.708 17.0035C171.628 17.1356 171.516 17.2403 171.375 17.3177C171.236 17.395 171.085 17.4337 170.92 17.4337ZM174.881 26H173.421V18.5746H174.823V19.788H174.915C175.092 19.3787 175.366 19.058 175.736 18.826C176.107 18.5939 176.563 18.4779 177.104 18.4779C177.617 18.4779 178.062 18.5859 178.439 18.8018C178.819 19.0145 179.112 19.3303 179.319 19.7493C179.528 20.1683 179.633 20.6775 179.633 21.2769V26H178.173V21.4558C178.173 21.1013 178.11 20.7951 177.984 20.5373C177.862 20.2795 177.683 20.0829 177.448 19.9475C177.212 19.8089 176.932 19.7396 176.607 19.7396C176.268 19.7396 175.968 19.8138 175.707 19.962C175.45 20.107 175.246 20.3198 175.098 20.6001C174.953 20.8773 174.881 21.2093 174.881 21.596V26ZM184.248 18.5746H185.756L187.202 24.018H187.279L188.729 18.5746H190.237L191.678 23.9938H191.751L193.191 18.5746H194.699L192.519 26H191.035L189.527 20.6533H189.42L187.922 26H186.428L184.248 18.5746ZM195.897 18.5746H197.357V26H195.897V18.5746ZM196.637 17.4337C196.469 17.4337 196.315 17.395 196.173 17.3177C196.034 17.2403 195.923 17.1356 195.839 17.0035C195.756 16.8713 195.714 16.7263 195.714 16.5684C195.714 16.4105 195.756 16.2654 195.839 16.1333C195.923 16.0012 196.034 15.8964 196.173 15.8191C196.315 15.7417 196.469 15.703 196.637 15.703C196.801 15.703 196.953 15.7417 197.091 15.8191C197.233 15.8964 197.344 16.0012 197.425 16.1333C197.509 16.2654 197.551 16.4105 197.551 16.5684C197.551 16.7263 197.509 16.8713 197.425 17.0035C197.344 17.1356 197.233 17.2403 197.091 17.3177C196.953 17.395 196.801 17.4337 196.637 17.4337ZM202.609 19.7396H201.095V23.8149C201.095 24.1984 201.174 24.4595 201.332 24.5981C201.49 24.7334 201.708 24.8027 201.985 24.8059C202.072 24.8059 202.277 24.7979 202.599 24.7818L202.71 24.7769V26.0338C202.472 26.0757 202.17 26.0967 201.806 26.0967C201.41 26.0967 201.047 26.0242 200.718 25.8791C200.39 25.7309 200.127 25.5085 199.93 25.212C199.734 24.9123 199.635 24.5465 199.635 24.1146V19.7396H198.548V18.5746H199.635V16.7956H201.095V18.5746H202.609V19.7396ZM205.642 26H204.182V16.0994H205.623V19.788H205.715C205.895 19.369 206.166 19.0467 206.527 18.8211C206.891 18.5923 207.354 18.4779 207.915 18.4779C208.43 18.4779 208.878 18.5843 209.258 18.797C209.639 19.0064 209.934 19.3207 210.143 19.7396C210.353 20.1586 210.457 20.671 210.457 21.2769V26H208.997V21.4558C208.997 20.9144 208.857 20.4938 208.577 20.1941C208.3 19.8911 207.913 19.7396 207.417 19.7396C207.072 19.7396 206.766 19.8138 206.498 19.962C206.231 20.107 206.021 20.3198 205.87 20.6001C205.718 20.8773 205.642 21.2093 205.642 21.596V26ZM222.446 19.2272C222.259 18.6342 221.945 18.1717 221.503 17.8398C221.062 17.5046 220.52 17.337 219.879 17.337C219.315 17.337 218.809 17.482 218.361 17.7721C217.916 18.0622 217.567 18.486 217.312 19.0435C217.058 19.6011 216.93 20.2682 216.93 21.0449C216.93 21.828 217.058 22.5 217.312 23.0608C217.57 23.6183 217.926 24.0421 218.381 24.3322C218.835 24.619 219.355 24.7624 219.942 24.7624C220.464 24.7624 220.923 24.6577 221.32 24.4482C221.716 24.2355 222.026 23.9342 222.248 23.5442C222.474 23.151 222.591 22.6934 222.601 22.1713H220.16V20.9337H224.061V22.0552C224.061 22.8738 223.885 23.5925 223.534 24.2113C223.183 24.8269 222.694 25.3023 222.069 25.6374C221.447 25.9694 220.736 26.1354 219.937 26.1354C219.044 26.1354 218.258 25.9291 217.578 25.5166C216.901 25.1041 216.374 24.5159 215.997 23.7521C215.623 22.985 215.436 22.0859 215.436 21.0546C215.436 20.02 215.625 19.1192 216.002 18.3522C216.382 17.582 216.908 16.9922 217.578 16.5829C218.248 16.1703 219.012 15.9641 219.869 15.9641C220.572 15.9641 221.215 16.1027 221.798 16.3798C222.385 16.6538 222.868 17.0373 223.249 17.5304C223.632 18.0235 223.88 18.5891 223.993 19.2272H222.446ZM228.812 26.1499C228.119 26.1499 227.51 25.9919 226.985 25.6761C226.463 25.357 226.058 24.9075 225.771 24.3273C225.485 23.7472 225.341 23.0785 225.341 22.3211C225.341 21.5573 225.485 20.8854 225.771 20.3052C226.058 19.7251 226.463 19.2756 226.985 18.9565C227.51 18.6374 228.119 18.4779 228.812 18.4779C229.502 18.4779 230.108 18.6374 230.63 18.9565C231.155 19.2756 231.56 19.7251 231.843 20.3052C232.13 20.8854 232.273 21.5573 232.273 22.3211C232.273 23.0785 232.13 23.7472 231.843 24.3273C231.56 24.9075 231.155 25.357 230.63 25.6761C230.108 25.9919 229.502 26.1499 228.812 26.1499ZM226.811 22.3163C226.811 22.8029 226.885 23.2445 227.033 23.6409C227.185 24.0373 227.41 24.3515 227.71 24.5836C228.013 24.8156 228.382 24.9316 228.817 24.9316C229.249 24.9316 229.613 24.8156 229.909 24.5836C230.209 24.3515 230.433 24.0373 230.581 23.6409C230.73 23.2445 230.804 22.8029 230.804 22.3163C230.804 21.8297 230.73 21.3881 230.581 20.9917C230.433 20.5953 230.209 20.2795 229.909 20.0442C229.613 19.8089 229.249 19.6913 228.817 19.6913C228.382 19.6913 228.013 19.8089 227.71 20.0442C227.41 20.2795 227.185 20.5953 227.033 20.9917C226.885 21.3881 226.811 21.8297 226.811 22.3163ZM236.851 26.1499C236.158 26.1499 235.549 25.9919 235.024 25.6761C234.502 25.357 234.097 24.9075 233.81 24.3273C233.524 23.7472 233.38 23.0785 233.38 22.3211C233.38 21.5573 233.524 20.8854 233.81 20.3052C234.097 19.7251 234.502 19.2756 235.024 18.9565C235.549 18.6374 236.158 18.4779 236.851 18.4779C237.541 18.4779 238.147 18.6374 238.669 18.9565C239.194 19.2756 239.599 19.7251 239.882 20.3052C240.169 20.8854 240.312 21.5573 240.312 22.3211C240.312 23.0785 240.169 23.7472 239.882 24.3273C239.599 24.9075 239.194 25.357 238.669 25.6761C238.147 25.9919 237.541 26.1499 236.851 26.1499ZM234.85 22.3163C234.85 22.8029 234.924 23.2445 235.072 23.6409C235.224 24.0373 235.449 24.3515 235.749 24.5836C236.052 24.8156 236.421 24.9316 236.856 24.9316C237.288 24.9316 237.652 24.8156 237.949 24.5836C238.248 24.3515 238.472 24.0373 238.62 23.6409C238.769 23.2445 238.843 22.8029 238.843 22.3163C238.843 21.8297 238.769 21.3881 238.62 20.9917C238.472 20.5953 238.248 20.2795 237.949 20.0442C237.652 19.8089 237.288 19.6913 236.856 19.6913C236.421 19.6913 236.052 19.8089 235.749 20.0442C235.449 20.2795 235.224 20.5953 235.072 20.9917C234.924 21.3881 234.85 21.8297 234.85 22.3163ZM244.876 28.9392C244.25 28.9392 243.701 28.8506 243.227 28.6733C242.757 28.4993 242.383 28.2447 242.106 27.9095C241.832 27.5776 241.674 27.1812 241.632 26.7203H243.121C243.189 27.0684 243.375 27.3294 243.682 27.5035C243.991 27.6807 244.394 27.7693 244.89 27.7693C245.49 27.7693 245.954 27.6324 246.282 27.3584C246.614 27.0877 246.78 26.6703 246.78 26.1064V24.6464H246.684C246.5 24.988 246.245 25.2813 245.92 25.5262C245.594 25.768 245.132 25.8888 244.532 25.8888C243.939 25.8888 243.408 25.7454 242.937 25.4586C242.47 25.1717 242.101 24.7512 241.83 24.1968C241.559 23.6425 241.424 22.9802 241.424 22.2099C241.424 21.4397 241.558 20.7742 241.825 20.2134C242.093 19.6494 242.462 19.2192 242.932 18.9227C243.406 18.6262 243.944 18.4779 244.547 18.4779C244.969 18.4779 245.324 18.5488 245.611 18.6906C245.897 18.8292 246.118 18.9887 246.273 19.1692C246.428 19.3497 246.569 19.5527 246.698 19.7783H246.795V18.5746H248.221V26.1595C248.221 26.7751 248.078 27.2907 247.791 27.7065C247.504 28.1222 247.109 28.4316 246.606 28.6347C246.107 28.8377 245.53 28.9392 244.876 28.9392ZM242.908 22.239C242.908 22.7288 242.982 23.1575 243.131 23.5249C243.279 23.8923 243.5 24.1775 243.793 24.3805C244.086 24.5836 244.442 24.6851 244.861 24.6851C245.271 24.6851 245.62 24.5884 245.91 24.395C246.2 24.2017 246.419 23.9213 246.568 23.5539C246.719 23.1865 246.795 22.7482 246.795 22.239C246.795 21.7362 246.719 21.2963 246.568 20.9192C246.419 20.5389 246.2 20.244 245.91 20.0345C245.62 19.825 245.271 19.7203 244.861 19.7203C244.439 19.7203 244.081 19.8299 243.788 20.049C243.498 20.265 243.279 20.5631 243.131 20.9434C242.982 21.3237 242.908 21.7555 242.908 22.239ZM251.457 26H249.997V16.0994H251.457V26ZM256.442 26.1499C255.72 26.1499 255.092 25.9936 254.557 25.6809C254.025 25.3651 253.616 24.9203 253.329 24.3467C253.045 23.7698 252.904 23.0994 252.904 22.3356C252.904 21.5815 253.045 20.9128 253.329 20.3294C253.616 19.7461 254.019 19.2917 254.538 18.9662C255.056 18.6407 255.656 18.4779 256.336 18.4779C256.932 18.4779 257.478 18.6084 257.975 18.8695C258.474 19.1273 258.876 19.535 259.178 20.0925C259.485 20.6501 259.638 21.3559 259.638 22.2099V22.7272H254.354C254.367 23.1913 254.462 23.5909 254.639 23.9261C254.816 24.2613 255.06 24.5159 255.369 24.6899C255.682 24.864 256.043 24.951 256.452 24.951C256.845 24.951 257.179 24.8768 257.453 24.7286C257.727 24.5771 257.93 24.3789 258.062 24.134H259.541C259.431 24.5401 259.235 24.8946 258.951 25.1975C258.671 25.5005 258.316 25.7357 257.888 25.9033C257.459 26.0677 256.977 26.1499 256.442 26.1499ZM258.202 21.6347C258.202 21.2608 258.125 20.9256 257.97 20.6291C257.815 20.3326 257.598 20.1006 257.317 19.933C257.04 19.7622 256.719 19.6768 256.355 19.6768C255.978 19.6768 255.641 19.7654 255.345 19.9427C255.052 20.1199 254.82 20.3584 254.649 20.6581C254.478 20.9579 254.381 21.2834 254.359 21.6347H258.202Z" fill="#666666"/>
<defs>
<clipPath id="clip0_87_4810">
<rect width="20" height="20" fill="white" transform="translate(99.5 11)"/>
</clipPath>
</defs>
</svg>
