<?xml version="1.0" encoding="UTF-8"?>
<svg id="_레이어_1" data-name="레이어 1" xmlns="http://www.w3.org/2000/svg" viewBox="0 0 822.94 245.83">
  <defs>
    <style>
      .cls-1 {
        fill: none;
      }

      .cls-1, .cls-2 {
        stroke-width: 0px;
      }

      .cls-2 {
        fill: #000;
      }
    </style>
  </defs>
  <circle class="cls-2" cx="732.94" cy="122.91" r="90"/>
  <circle class="cls-2" cx="304.11" cy="122.91" r="90"/>
  <path class="cls-2" d="M90,130.41v-15h89.69c-3.81-46.2-42.51-82.5-89.69-82.5C40.29,32.91,0,73.21,0,122.91s40.29,90,90,90,85.87-36.3,89.69-82.5h-89.69Z"/>
  <g>
    <path class="cls-1" d="M608.5,124.99c.02-.69.03-1.38.03-2.08,0-15.87-4.11-30.77-11.32-43.72l-78.77,45.8h90.07Z"/>
    <path class="cls-2" d="M497.01,124.99l-55.41,44.67c15.79,25.94,44.34,43.25,76.92,43.25,49.01,0,88.87-39.18,89.97-87.92h-111.49Z"/>
    <path class="cls-2" d="M518.43,124.99l78.77-45.8c-15.37-27.6-44.84-46.28-78.68-46.28-49.71,0-90,40.29-90,90,0,17.12,4.78,33.12,13.08,46.75l76.83-44.67Z"/>
  </g>
</svg>