<svg width="10" height="10" viewBox="0 0 10 10" fill="none" xmlns="http://www.w3.org/2000/svg">
<path d="M5.00001 0C4.0111 0 3.0444 0.293245 2.22215 0.842653C1.39991 1.39206 0.759043 2.17295 0.380605 3.08659C0.00216641 4.00022 -0.0968503 5.00555 0.0960759 5.97546C0.289002 6.94536 0.765206 7.83628 1.46447 8.53554C2.16373 9.2348 3.05465 9.71101 4.02455 9.90394C4.99446 10.0969 5.99979 9.99784 6.91342 9.61941C7.82705 9.24097 8.60795 8.6001 9.15736 7.77786C9.70676 6.95561 10 5.98891 10 5C10 3.67392 9.47322 2.40215 8.53554 1.46447C7.59786 0.526785 6.32609 0 5.00001 0V0ZM5.00001 9.47369C4.11519 9.47369 3.25025 9.21132 2.51456 8.71974C1.77886 8.22816 1.20546 7.52947 0.866857 6.71201C0.528255 5.89455 0.439661 4.99504 0.612279 4.12723C0.784897 3.25942 1.21097 2.46229 1.83663 1.83663C2.46229 1.21097 3.25942 0.784895 4.12723 0.612277C4.99504 0.439659 5.89455 0.528253 6.71201 0.866855C7.52947 1.20546 8.22816 1.77886 8.71974 2.51456C9.21132 3.25025 9.47369 4.11519 9.47369 5C9.47369 6.1865 9.00236 7.3244 8.16338 8.16338C7.3244 9.00236 6.1865 9.47369 5.00001 9.47369ZM6.7658 3.6079L5.37106 5L6.7658 6.39211C6.79033 6.41665 6.8098 6.44578 6.82307 6.47783C6.83635 6.50989 6.84319 6.54425 6.84319 6.57895C6.84319 6.61365 6.83635 6.64801 6.82307 6.68007C6.8098 6.71213 6.79033 6.74126 6.7658 6.76579C6.74126 6.79033 6.71213 6.80979 6.68007 6.82307C6.64801 6.83635 6.61365 6.84319 6.57895 6.84319C6.54425 6.84319 6.50989 6.83635 6.47784 6.82307C6.44578 6.80979 6.41665 6.79033 6.39211 6.76579L5.00001 5.37106L3.6079 6.76579C3.58336 6.79033 3.55423 6.80979 3.52218 6.82307C3.49012 6.83635 3.45576 6.84319 3.42106 6.84319C3.38636 6.84319 3.352 6.83635 3.31994 6.82307C3.28788 6.80979 3.25875 6.79033 3.23421 6.76579C3.20968 6.74126 3.19021 6.71213 3.17694 6.68007C3.16366 6.64801 3.15682 6.61365 3.15682 6.57895C3.15682 6.54425 3.16366 6.50989 3.17694 6.47783C3.19021 6.44578 3.20968 6.41665 3.23421 6.39211L4.62895 5L3.23421 3.6079C3.18466 3.55834 3.15682 3.49113 3.15682 3.42106C3.15682 3.35098 3.18466 3.28377 3.23421 3.23421C3.28377 3.18466 3.35098 3.15682 3.42106 3.15682C3.49114 3.15682 3.55835 3.18466 3.6079 3.23421L5.00001 4.62895L6.39211 3.23421C6.44167 3.18466 6.50887 3.15682 6.57895 3.15682C6.64903 3.15682 6.71624 3.18466 6.7658 3.23421C6.81535 3.28377 6.84319 3.35098 6.84319 3.42106C6.84319 3.49113 6.81535 3.55834 6.7658 3.6079Z" fill="white"/>
</svg>
